<svg width="1024" height="1440" viewBox="0 0 1024 1440" fill="none" xmlns="http://www.w3.org/2000/svg">
<g clip-path="url(#clip0_202_11)">
<rect width="1440" height="1024" transform="translate(1024) rotate(90)" fill="white"/>
<path d="M-30.8521 481.812C67.303 328.914 420.993 448.102 382.504 270.345C356.327 149.447 148.704 203.598 129.211 81.4343C101.445 -92.5825 424.345 -29.2172 577.95 56.0582C667.035 105.515 754.153 145.031 755.986 247.225C758.188 370.05 507.185 438.391 507.185 438.391C507.185 438.391 573.413 497.051 577.95 547.79C586.655 645.143 365.094 678.054 365.094 678.054C365.094 678.054 446.855 813.577 403.284 881.626C361.852 946.336 184.042 1236.86 184.042 1236.86C184.042 1236.86 32.3565 1566 -30.8521 1566C-69.4392 1566 -72.989 1170.83 -66.2345 917.153C-61.6944 746.643 -122.892 625.185 -30.8521 481.812Z" fill="#F84089" fill-opacity="0.08"/>
<path d="M1049.6 1004.71C963.079 1180.8 651.305 1043.54 685.232 1248.25C708.307 1387.49 891.325 1325.12 908.508 1465.82C932.983 1666.23 648.35 1593.25 512.949 1495.04C434.421 1438.08 357.628 1392.57 356.012 1274.88C354.071 1133.43 575.327 1054.72 575.327 1054.72C575.327 1054.72 516.948 987.164 512.949 928.73C505.275 816.611 700.579 778.709 700.579 778.709C700.579 778.709 628.508 622.631 666.915 544.261C703.437 469.737 832.762 479.967 832.762 479.967C832.762 479.967 916.129 406.504 937.717 333.193C987.637 163.67 713.946 -27.8954 713.946 -27.8954C713.946 -27.8954 867.614 -192.835 968.906 -151.289C1090.15 -101.561 1110 233.179 1110 233.179L1080.79 503.347C1080.79 503.347 1130.73 839.596 1049.6 1004.71Z" fill="#86EFAC" fill-opacity="0.12"/>
</g>
<defs>
<clipPath id="clip0_202_11">
<rect width="1440" height="1024" fill="white" transform="translate(1024) rotate(90)"/>
</clipPath>
</defs>
</svg>
